<svg width="529" height="910" viewBox="0 0 529 910" fill="none" xmlns="http://www.w3.org/2000/svg">
<g clip-path="url(#clip0)" filter="url(#filter0_d)">
<g filter="url(#filter1_b)">
<path d="M523.366 1.31689H5V909.683H523.366V1.31689Z" fill="#FDF9E7"/>
<path d="M523.366 1.31689H5V909.683H523.366V1.31689Z" stroke="#691403" stroke-width="3" stroke-miterlimit="10"/>
</g>
<path d="M523.683 113H104.091H5.31699" stroke="#691403" stroke-width="3" stroke-miterlimit="10"/>
<path d="M67 942L67 113" stroke="#691403" stroke-width="3" stroke-miterlimit="10"/>
<path d="M458.887 929.977V113" stroke="#691403" stroke-width="3" stroke-miterlimit="10"/>
<g clip-path="url(#clip1)">
<path d="M355.422 738.388C353.131 738.349 350.957 738.117 348.86 737.381C344.823 735.948 341.562 733.547 339.854 729.519C339.349 728.319 339.155 726.963 338.999 725.647C338.844 724.562 339.388 724.098 340.514 724.136C346.415 724.253 352.122 723.362 357.518 720.845C358.838 720.225 360.042 719.412 361.284 718.637C361.517 718.521 361.672 718.134 361.672 717.901C361.711 711.472 361.672 705.044 361.672 698.654C361.672 698.576 361.672 698.499 361.633 698.383C360.624 698.266 359.576 698.189 358.566 697.995C354.762 697.182 351.656 695.362 349.753 691.876C349.093 690.676 348.744 689.359 348.744 687.965C348.744 686.958 349.132 686.532 350.142 686.571C352.898 686.687 355.655 686.377 358.333 685.757C361.167 685.138 363.807 684.092 366.214 682.427C366.564 682.194 366.68 681.962 366.68 681.536C366.641 678.438 366.68 675.301 366.68 672.203C366.68 671.118 367.069 670.731 368.117 670.731C369.903 670.731 371.688 670.731 373.474 670.731C373.746 670.731 374.018 670.731 374.367 670.731C374.367 669.105 374.367 667.555 374.367 666.006C374.367 664.457 374.639 664.186 376.231 664.186C379.026 664.186 381.782 664.186 384.578 664.186C385.121 664.186 385.315 664.031 385.315 663.45C385.277 660.817 385.315 658.145 385.315 655.511C385.315 654.582 385.704 654.078 386.48 654.04C387.256 654.001 387.722 654.543 387.722 655.511C387.722 658.145 387.761 660.817 387.722 663.45C387.722 664.031 387.916 664.186 388.46 664.186C391.255 664.186 394.051 664.186 396.885 664.186C398.282 664.186 398.593 664.496 398.593 665.89C398.593 667.478 398.593 669.027 398.593 670.692C398.942 670.692 399.175 670.692 399.447 670.692C401.194 670.692 402.941 670.692 404.727 670.692C405.853 670.692 406.28 671.08 406.28 672.203C406.28 674.604 406.28 677.005 406.28 679.445C406.28 680.142 406.319 680.8 406.28 681.497C406.241 681.962 406.435 682.194 406.784 682.427C409.813 684.479 413.229 685.602 416.84 686.106C418.82 686.377 420.8 686.416 422.818 686.493C423.867 686.532 424.294 686.997 424.216 688.081C423.905 692.031 421.731 694.665 418.393 696.524C416.413 697.647 414.239 698.15 411.948 698.266C411.715 698.266 411.521 698.305 411.21 698.305C411.21 699.893 411.21 701.442 411.21 702.991C411.21 707.91 411.21 712.828 411.21 717.746C411.21 718.211 411.366 718.482 411.754 718.753C415.791 721.503 420.256 723.013 425.07 723.672C427.555 724.02 430.117 724.02 432.641 724.136C433.534 724.175 433.999 724.562 433.961 725.492C433.883 729.132 432.252 732.037 429.535 734.36C426.274 737.149 422.43 738.311 418.237 738.427C418.043 738.427 417.849 738.427 417.538 738.427C417.538 738.775 417.538 739.046 417.538 739.356C417.538 747.683 417.538 756.048 417.538 764.374C417.538 765.73 417.228 766.04 415.869 766.04C399.447 766.04 383.064 766.04 366.641 766.04C363.38 766.04 360.158 766.04 356.897 766.04C355.732 766.04 355.383 765.652 355.383 764.49C355.383 756.125 355.383 747.76 355.383 739.395C355.422 739.046 355.422 738.775 355.422 738.388ZM357.867 738.388C357.867 746.831 357.867 755.196 357.867 763.6C364.623 763.6 371.3 763.6 378.055 763.6C378.055 763.251 378.055 762.98 378.055 762.709C378.055 757.055 378.055 751.439 378.055 745.785C378.055 744.662 378.444 744.236 379.492 744.236C384.073 744.236 388.654 744.236 393.235 744.236C394.516 744.236 394.866 744.584 394.866 745.901C394.866 751.517 394.866 757.132 394.866 762.748C394.866 763.019 394.866 763.329 394.866 763.6C401.66 763.6 408.337 763.6 415.093 763.6C415.093 755.196 415.093 746.831 415.093 738.388C396.03 738.388 376.968 738.388 357.867 738.388ZM342.105 728.706C342.299 729.093 342.377 729.326 342.532 729.519C342.804 729.984 343.076 730.449 343.425 730.836C346.376 734.399 350.297 735.871 354.762 735.91C361.323 735.987 367.884 735.948 374.445 735.948C387.179 735.948 399.874 735.948 412.608 735.948C415.326 735.948 418.043 736.026 420.722 735.716C424.527 735.251 427.749 733.508 430.039 730.294C430.35 729.868 430.583 729.365 430.855 728.9C429.38 729.481 427.943 729.791 426.429 729.791C418.004 729.791 409.58 729.791 401.116 729.791C383.219 729.791 365.283 729.791 347.385 729.791C345.561 729.791 343.891 729.597 342.105 728.706ZM408.803 698.305C393.895 698.305 379.026 698.305 364.118 698.305C364.118 704.773 364.118 711.201 364.118 717.63C369.437 717.63 374.678 717.63 379.997 717.63C379.997 717.359 380.035 717.165 380.035 716.972C380.035 712.983 380.035 708.994 380.035 705.005C380.035 703.921 380.424 703.495 381.549 703.495C384.772 703.495 387.994 703.495 391.216 703.495C392.692 703.495 393.002 703.804 393.002 705.315C393.002 708.878 393.002 712.402 393.002 715.965C393.002 716.507 393.002 717.049 393.002 717.63C398.321 717.63 403.562 717.63 408.842 717.63C408.803 711.163 408.803 704.773 408.803 698.305ZM429.768 726.77C429.729 726.692 429.729 726.615 429.69 726.537C427.749 726.305 425.769 726.111 423.828 725.802C418.936 724.988 414.316 723.362 410.201 720.496C409.852 720.225 409.308 720.07 408.881 720.07C402.941 720.031 397.04 720.07 391.1 720.07C382.015 720.07 372.97 720.07 363.885 720.07C363.574 720.07 363.186 720.186 362.953 720.38C358.489 723.555 353.48 725.182 348.123 725.957C346.531 726.189 344.901 726.305 343.153 726.499C344.202 727.08 345.211 727.389 346.298 727.389C354.218 727.389 362.138 727.428 370.058 727.428C383.335 727.428 396.574 727.428 409.852 727.428C415.481 727.428 421.11 727.428 426.74 727.389C427.749 727.389 428.758 726.963 429.768 726.77ZM369.165 681.42C380.773 681.42 392.265 681.42 403.834 681.42C403.834 678.632 403.834 675.882 403.834 673.132C392.265 673.132 380.734 673.132 369.165 673.132C369.165 675.921 369.165 678.632 369.165 681.42ZM420.838 691.141C419.751 691.295 418.742 691.528 417.694 691.528C411.055 691.567 404.377 691.567 397.739 691.567C386.907 691.567 376.037 691.605 365.205 691.528C360.857 691.489 356.509 691.915 352.16 691.141C352.199 691.218 352.238 691.334 352.316 691.412C352.51 691.683 352.704 691.954 352.937 692.225C355.266 694.82 358.294 695.865 361.711 695.865C377.667 695.904 393.585 695.904 409.541 695.865C411.249 695.865 412.957 695.788 414.627 695.439C417.228 694.858 419.363 693.425 420.838 691.141ZM419.402 688.972C419.402 688.933 419.402 688.856 419.402 688.817C418.16 688.662 416.956 688.507 415.714 688.313C411.831 687.616 408.182 686.338 404.96 684.053C404.727 683.898 404.377 683.821 404.067 683.821C392.342 683.821 380.618 683.821 368.893 683.821C368.505 683.821 368.078 683.976 367.767 684.208C365.943 685.486 363.963 686.416 361.827 687.152C359.149 688.081 356.392 688.546 353.558 688.894C354.296 689.049 354.995 689.165 355.732 689.165C361.206 689.165 366.641 689.165 372.115 689.165C387.256 689.165 402.436 689.165 417.577 689.165C418.198 689.165 418.82 689.049 419.402 688.972ZM380.501 763.561C384.5 763.561 388.499 763.561 392.498 763.561C392.498 757.868 392.498 752.253 392.498 746.598C388.46 746.598 384.5 746.598 380.501 746.598C380.501 752.291 380.501 757.907 380.501 763.561ZM390.518 717.63C390.518 713.68 390.518 709.807 390.518 705.896C387.8 705.896 385.16 705.896 382.481 705.896C382.481 709.846 382.481 713.719 382.481 717.63C385.199 717.63 387.839 717.63 390.518 717.63ZM396.186 670.654C396.186 669.298 396.186 667.943 396.186 666.587C389.702 666.587 383.258 666.587 376.813 666.587C376.813 667.943 376.813 669.259 376.813 670.654C383.258 670.654 389.702 670.654 396.186 670.654Z" fill="#691403"/>
<path d="M398.593 750.625C398.593 748.96 398.593 747.333 398.593 745.668C398.593 744.622 398.982 744.196 400.03 744.196C403.33 744.196 406.669 744.196 409.969 744.196C411.094 744.196 411.521 744.545 411.521 745.707C411.521 748.495 411.521 751.283 411.521 754.072C411.521 754.614 411.521 755.195 411.521 755.737C411.483 756.628 411.056 757.015 410.201 757.015C406.785 757.015 403.369 757.015 399.991 757.015C399.059 757.015 398.632 756.55 398.632 755.621C398.593 753.994 398.593 752.29 398.593 750.625ZM401.039 746.597C401.039 749.308 401.039 751.981 401.039 754.653C403.757 754.653 406.397 754.653 409.076 754.653C409.076 751.942 409.076 749.308 409.076 746.597C406.358 746.597 403.718 746.597 401.039 746.597Z" fill="#691403"/>
<path d="M361.517 750.625C361.517 748.96 361.517 747.256 361.517 745.591C361.517 744.623 361.906 744.235 362.876 744.235C366.254 744.235 369.631 744.235 373.048 744.235C373.941 744.235 374.407 744.661 374.407 745.552C374.407 748.96 374.407 752.368 374.407 755.737C374.407 756.628 373.98 757.093 373.048 757.093C369.631 757.093 366.215 757.093 362.837 757.093C361.906 757.093 361.517 756.667 361.517 755.737C361.517 753.995 361.517 752.329 361.517 750.625ZM372 754.692C372 751.942 372 749.309 372 746.598C369.282 746.598 366.603 746.598 363.924 746.598C363.924 749.309 363.924 751.981 363.924 754.692C366.642 754.692 369.282 754.692 372 754.692Z" fill="#691403"/>
<path d="M395.022 708.451C395.022 707.251 395.022 706.011 395.022 704.811C395.022 703.92 395.41 703.533 396.303 703.533C398.749 703.533 401.233 703.533 403.679 703.533C404.611 703.533 405.038 703.959 405.038 704.849C405.077 707.289 405.038 709.768 405.038 712.208C405.038 713.098 404.572 713.563 403.679 713.563C401.233 713.563 398.749 713.563 396.303 713.563C395.371 713.563 394.983 713.137 394.983 712.169C395.022 710.93 395.022 709.69 395.022 708.451ZM402.631 711.162C402.631 709.342 402.631 707.638 402.631 705.895C400.884 705.895 399.176 705.895 397.467 705.895C397.467 707.677 397.467 709.381 397.467 711.162C399.176 711.162 400.884 711.162 402.631 711.162Z" fill="#691403"/>
<path d="M367.962 708.49C367.962 707.251 367.962 706.011 367.962 704.772C367.962 703.92 368.389 703.533 369.204 703.533C371.689 703.533 374.174 703.533 376.658 703.533C377.474 703.533 377.978 703.92 377.978 704.772C378.017 707.289 378.017 709.807 377.978 712.363C377.978 713.137 377.551 713.563 376.736 713.602C374.213 713.641 371.689 713.641 369.127 713.602C368.35 713.602 367.962 713.137 367.923 712.324C367.962 711.007 367.962 709.768 367.962 708.49ZM375.571 711.162C375.571 709.381 375.571 707.677 375.571 705.895C373.824 705.895 372.077 705.895 370.369 705.895C370.369 707.677 370.369 709.419 370.369 711.162C372.116 711.162 373.824 711.162 375.571 711.162Z" fill="#691403"/>
</g>
</g>
<defs>
<filter id="filter0_d" x="0" y="0" width="529" height="919" filterUnits="userSpaceOnUse" color-interpolation-filters="sRGB">
<feFlood flood-opacity="0" result="BackgroundImageFix"/>
<feColorMatrix in="SourceAlpha" type="matrix" values="0 0 0 0 0 0 0 0 0 0 0 0 0 0 0 0 0 0 127 0"/>
<feOffset dy="4"/>
<feGaussianBlur stdDeviation="2"/>
<feColorMatrix type="matrix" values="0 0 0 0 0 0 0 0 0 0 0 0 0 0 0 0 0 0 0.25 0"/>
<feBlend mode="normal" in2="BackgroundImageFix" result="effect1_dropShadow"/>
<feBlend mode="normal" in="SourceGraphic" in2="effect1_dropShadow" result="shape"/>
</filter>
<filter id="filter1_b" x="-0.5" y="-4.18311" width="529.366" height="919.366" filterUnits="userSpaceOnUse" color-interpolation-filters="sRGB">
<feFlood flood-opacity="0" result="BackgroundImageFix"/>
<feGaussianBlur in="BackgroundImage" stdDeviation="2"/>
<feComposite in2="SourceAlpha" operator="in" result="effect1_backgroundBlur"/>
<feBlend mode="normal" in="SourceGraphic" in2="effect1_backgroundBlur" result="shape"/>
</filter>
<clipPath id="clip0">
<rect width="521" height="911" fill="white" transform="translate(4)"/>
</clipPath>
<clipPath id="clip1">
<rect width="95" height="112" fill="white" transform="translate(339 654)"/>
</clipPath>
</defs>
</svg>
