<svg viewBox="0 0 245 290" fill="none" xmlns="http://www.w3.org/2000/svg">
    <g clip-path="url(#clip0)">
        <path
            d="M42.3 217.9C36.4 217.8 30.8 217.2 25.4 215.3C15 211.6 6.60001 205.4 2.20001 195C0.900007 191.9 0.400006 188.4 6.3777e-06 185C-0.399994 182.2 1.00001 181 3.90001 181.1C19.1 181.4 33.8 179.1 47.7 172.6C51.1 171 54.2 168.9 57.4 166.9C58 166.6 58.4 165.6 58.4 165C58.5 148.4 58.4 131.8 58.4 115.3C58.4 115.1 58.4 114.9 58.3 114.6C55.7 114.3 53 114.1 50.4 113.6C40.6 111.5 32.6 106.8 27.7 97.8C26 94.7 25.1 91.3 25.1 87.7C25.1 85.1 26.1 84 28.7 84.1C35.8 84.4 42.9 83.6 49.8 82C57.1 80.4 63.9 77.7 70.1 73.4C71 72.8 71.3 72.2 71.3 71.1C71.2 63.1 71.3 55 71.3 47C71.3 44.2 72.3 43.2 75 43.2C79.6 43.2 84.2 43.2 88.8 43.2C89.5 43.2 90.2 43.2 91.1 43.2C91.1 39 91.1 35 91.1 31C91.1 27 91.8 26.3 95.9 26.3C103.1 26.3 110.2 26.3 117.4 26.3C118.8 26.3 119.3 25.9 119.3 24.4C119.2 17.6 119.3 10.7 119.3 3.89999C119.3 1.49999 120.3 0.199986 122.3 0.0999856C124.3 -1.43871e-05 125.5 1.39999 125.5 3.89999C125.5 10.7 125.6 17.6 125.5 24.4C125.5 25.9 126 26.3 127.4 26.3C134.6 26.3 141.8 26.3 149.1 26.3C152.7 26.3 153.5 27.1 153.5 30.7C153.5 34.8 153.5 38.8 153.5 43.1C154.4 43.1 155 43.1 155.7 43.1C160.2 43.1 164.7 43.1 169.3 43.1C172.2 43.1 173.3 44.1 173.3 47C173.3 53.2 173.3 59.4 173.3 65.7C173.3 67.5 173.4 69.2 173.3 71C173.2 72.2 173.7 72.8 174.6 73.4C182.4 78.7 191.2 81.6 200.5 82.9C205.6 83.6 210.7 83.7 215.9 83.9C218.6 84 219.7 85.2 219.5 88C218.7 98.2 213.1 105 204.5 109.8C199.4 112.7 193.8 114 187.9 114.3C187.3 114.3 186.8 114.4 186 114.4C186 118.5 186 122.5 186 126.5C186 139.2 186 151.9 186 164.6C186 165.8 186.4 166.5 187.4 167.2C197.8 174.3 209.3 178.2 221.7 179.9C228.1 180.8 234.7 180.8 241.2 181.1C243.5 181.2 244.7 182.2 244.6 184.6C244.4 194 240.2 201.5 233.2 207.5C224.8 214.7 214.9 217.7 204.1 218C203.6 218 203.1 218 202.3 218C202.3 218.9 202.3 219.6 202.3 220.4C202.3 241.9 202.3 263.5 202.3 285C202.3 288.5 201.5 289.3 198 289.3C155.7 289.3 113.5 289.3 71.2 289.3C62.8 289.3 54.5 289.3 46.1 289.3C43.1 289.3 42.2 288.3 42.2 285.3C42.2 263.7 42.2 242.1 42.2 220.5C42.3 219.6 42.3 218.9 42.3 217.9ZM48.6 217.9C48.6 239.7 48.6 261.3 48.6 283C66 283 83.2 283 100.6 283C100.6 282.1 100.6 281.4 100.6 280.7C100.6 266.1 100.6 251.6 100.6 237C100.6 234.1 101.6 233 104.3 233C116.1 233 127.9 233 139.7 233C143 233 143.9 233.9 143.9 237.3C143.9 251.8 143.9 266.3 143.9 280.8C143.9 281.5 143.9 282.3 143.9 283C161.4 283 178.6 283 196 283C196 261.3 196 239.7 196 217.9C146.9 217.9 97.8 217.9 48.6 217.9ZM8.00001 192.9C8.50001 193.9 8.70001 194.5 9.10001 195C9.80001 196.2 10.5 197.4 11.4 198.4C19 207.6 29.1 211.4 40.6 211.5C57.5 211.7 74.4 211.6 91.3 211.6C124.1 211.6 156.8 211.6 189.6 211.6C196.6 211.6 203.6 211.8 210.5 211C220.3 209.8 228.6 205.3 234.5 197C235.3 195.9 235.9 194.6 236.6 193.4C232.8 194.9 229.1 195.7 225.2 195.7C203.5 195.7 181.8 195.7 160 195.7C113.9 195.7 67.7 195.7 21.6 195.7C16.9 195.7 12.6 195.2 8.00001 192.9ZM179.8 114.4C141.4 114.4 103.1 114.4 64.7 114.4C64.7 131.1 64.7 147.7 64.7 164.3C78.4 164.3 91.9 164.3 105.6 164.3C105.6 163.6 105.7 163.1 105.7 162.6C105.7 152.3 105.7 142 105.7 131.7C105.7 128.9 106.7 127.8 109.6 127.8C117.9 127.8 126.2 127.8 134.5 127.8C138.3 127.8 139.1 128.6 139.1 132.5C139.1 141.7 139.1 150.8 139.1 160C139.1 161.4 139.1 162.8 139.1 164.3C152.8 164.3 166.3 164.3 179.9 164.3C179.8 147.6 179.8 131.1 179.8 114.4ZM233.8 187.9C233.7 187.7 233.7 187.5 233.6 187.3C228.6 186.7 223.5 186.2 218.5 185.4C205.9 183.3 194 179.1 183.4 171.7C182.5 171 181.1 170.6 180 170.6C164.7 170.5 149.5 170.6 134.2 170.6C110.8 170.6 87.5 170.6 64.1 170.6C63.3 170.6 62.3 170.9 61.7 171.4C50.2 179.6 37.3 183.8 23.5 185.8C19.4 186.4 15.2 186.7 10.7 187.2C13.4 188.7 16 189.5 18.8 189.5C39.2 189.5 59.6 189.6 80 189.6C114.2 189.6 148.3 189.6 182.5 189.6C197 189.6 211.5 189.6 226 189.5C228.6 189.5 231.2 188.4 233.8 187.9ZM77.7 70.8C107.6 70.8 137.2 70.8 167 70.8C167 63.6 167 56.5 167 49.4C137.2 49.4 107.5 49.4 77.7 49.4C77.7 56.6 77.7 63.6 77.7 70.8ZM210.8 95.9C208 96.3 205.4 96.9 202.7 96.9C185.6 97 168.4 97 151.3 97C123.4 97 95.4 97.1 67.5 96.9C56.3 96.8 45.1 97.9 33.9 95.9C34 96.1 34.1 96.4 34.3 96.6C34.8 97.3 35.3 98 35.9 98.7C41.9 105.4 49.7 108.1 58.5 108.1C99.6 108.2 140.6 108.2 181.7 108.1C186.1 108.1 190.5 107.9 194.8 107C201.5 105.5 207 101.8 210.8 95.9ZM207.1 90.3C207.1 90.2 207.1 90 207.1 89.9C203.9 89.5 200.8 89.1 197.6 88.6C187.6 86.8 178.2 83.5 169.9 77.6C169.3 77.2 168.4 77 167.6 77C137.4 77 107.2 77 77 77C76 77 74.9 77.4 74.1 78C69.4 81.3 64.3 83.7 58.8 85.6C51.9 88 44.8 89.2 37.5 90.1C39.4 90.5 41.2 90.8 43.1 90.8C57.2 90.8 71.2 90.8 85.3 90.8C124.3 90.8 163.4 90.8 202.4 90.8C204 90.8 205.6 90.5 207.1 90.3ZM106.9 282.9C117.2 282.9 127.5 282.9 137.8 282.9C137.8 268.2 137.8 253.7 137.8 239.1C127.4 239.1 117.2 239.1 106.9 239.1C106.9 253.8 106.9 268.3 106.9 282.9ZM132.7 164.3C132.7 154.1 132.7 144.1 132.7 134C125.7 134 118.9 134 112 134C112 144.2 112 154.2 112 164.3C119 164.3 125.8 164.3 132.7 164.3ZM147.3 43C147.3 39.5 147.3 36 147.3 32.5C130.6 32.5 114 32.5 97.4 32.5C97.4 36 97.4 39.4 97.4 43C114 43 130.6 43 147.3 43Z"
            fill="#E3A609" fill-opacity="0.8" />
        <path
            d="M153.5 249.5C153.5 245.2 153.5 241 153.5 236.7C153.5 234 154.5 232.9 157.2 232.9C165.7 232.9 174.3 232.9 182.8 232.9C185.7 232.9 186.8 233.8 186.8 236.8C186.8 244 186.8 251.2 186.8 258.4C186.8 259.8 186.8 261.3 186.8 262.7C186.7 265 185.6 266 183.4 266C174.6 266 165.8 266 157.1 266C154.7 266 153.6 264.8 153.6 262.4C153.5 258.2 153.5 253.8 153.5 249.5ZM159.8 239.1C159.8 246.1 159.8 253 159.8 259.9C166.8 259.9 173.6 259.9 180.5 259.9C180.5 252.9 180.5 246.1 180.5 239.1C173.5 239.1 166.7 239.1 159.8 239.1Z"
            fill="#E3A609" fill-opacity="0.8" />
        <path
            d="M58 249.5C58 245.2 58 240.8 58 236.5C58 234 59 233 61.5 233C70.2 233 78.9 233 87.7 233C90 233 91.2 234.1 91.2 236.4C91.2 245.2 91.2 254 91.2 262.7C91.2 265 90.1 266.2 87.7 266.2C78.9 266.2 70.1 266.2 61.4 266.2C59 266.2 58 265.1 58 262.7C58 258.2 58 253.9 58 249.5ZM85 260C85 252.9 85 246.1 85 239.1C78 239.1 71.1 239.1 64.2 239.1C64.2 246.1 64.2 253 64.2 260C71.2 260 78 260 85 260Z"
            fill="#E3A609" fill-opacity="0.8" />
        <path
            d="M144.3 140.6C144.3 137.5 144.3 134.3 144.3 131.2C144.3 128.9 145.3 127.9 147.6 127.9C153.9 127.9 160.3 127.9 166.6 127.9C169 127.9 170.1 129 170.1 131.3C170.2 137.6 170.1 144 170.1 150.3C170.1 152.6 168.9 153.8 166.6 153.8C160.3 153.8 153.9 153.8 147.6 153.8C145.2 153.8 144.2 152.7 144.2 150.2C144.3 147 144.3 143.8 144.3 140.6ZM163.9 147.6C163.9 142.9 163.9 138.5 163.9 134C159.4 134 155 134 150.6 134C150.6 138.6 150.6 143 150.6 147.6C155 147.6 159.4 147.6 163.9 147.6Z"
            fill="#E3A609" fill-opacity="0.8" />
        <path
            d="M74.6 140.7C74.6 137.5 74.6 134.3 74.6 131.1C74.6 128.9 75.7 127.9 77.8 127.9C84.2 127.9 90.6 127.9 97 127.9C99.1 127.9 100.4 128.9 100.4 131.1C100.5 137.6 100.5 144.1 100.4 150.7C100.4 152.7 99.3 153.8 97.2 153.9C90.7 154 84.2 154 77.6 153.9C75.6 153.9 74.6 152.7 74.5 150.6C74.6 147.2 74.6 144 74.6 140.7ZM94.2 147.6C94.2 143 94.2 138.6 94.2 134C89.7 134 85.2 134 80.8 134C80.8 138.6 80.8 143.1 80.8 147.6C85.3 147.6 89.7 147.6 94.2 147.6Z"
            fill="#E3A609" fill-opacity="0.8" />
    </g>
    <defs>
        <clipPath id="clip0">
            <rect width="244.7" height="289.2" fill="white" />
        </clipPath>
    </defs>
</svg>