<svg width="730" height="689" viewBox="0 0 730 689" fill="none" xmlns="http://www.w3.org/2000/svg">
<g clip-path="url(#clip0)">
<path d="M352.541 122.26C341.782 110.907 330.337 100.327 320.262 88.2014C309.545 75.0906 315.111 60.4209 331.78 57.9612C446.578 41.0024 548.926 87.9872 602.823 183.513C665.38 294.467 652.175 409.951 566.841 504.878C539.939 534.575 506.735 556.603 467.999 569.16C451.503 574.535 440.358 566.57 442.41 549.331C445.444 523.987 450.836 498.941 453.142 473.641C454.85 453.057 453.472 432.22 453.551 411.295C453.678 406.021 454.833 400.831 455.56 395.814C449.165 361.817 442.769 327.82 436.373 293.824C433.799 284.907 431.654 275.819 429.08 266.903C414.15 214.691 391.595 167.031 355.414 126.33C354.599 124.916 353.485 123.374 352.541 122.26Z" fill="#691403"/>
<path d="M355.064 107.823C343.928 96.8404 332.132 86.6526 321.655 74.8746C310.501 62.1332 315.57 47.2843 332.147 44.2635C446.311 23.4404 550.186 66.9433 607.273 160.594C673.536 269.371 664.231 385.233 582.144 482.984C556.258 513.571 523.814 536.707 485.523 550.564C469.217 556.492 457.81 548.908 459.279 531.61C461.458 506.179 466.002 480.965 467.454 455.602C468.467 434.973 466.388 414.194 465.762 393.279C465.711 388.004 466.69 382.778 467.248 377.739C459.71 343.979 452.171 310.218 444.633 276.457C441.76 267.633 439.309 258.622 436.436 249.798C419.755 198.121 395.605 151.25 358.072 111.795C357.21 110.409 356.044 108.905 355.064 107.823Z" fill="#D05448"/>
<path d="M91.7859 297.676C121.552 225.482 169.122 175.388 235.881 143.731C242.614 140.692 253.883 140.416 259.525 143.948C263.451 146.481 263.372 158.673 262.05 165.855C224.838 340.689 275.306 487.592 401.713 610.849C407.577 616.56 414.684 627.281 412.793 633.2C410.786 639.425 399.309 644.859 391.397 646.405C265.678 672.514 137.01 597.637 93.9818 476.247C72.1834 414.921 73.6819 354.728 91.7859 297.676ZM153.464 266.54C151.517 266.153 149.381 265.344 147.434 264.957C129.922 281.726 117.936 325.38 130.939 343.57C138.282 317.714 145.815 292.28 153.464 266.54ZM374.301 606.762C351.888 581.171 329.59 555.273 307.176 529.682C321.354 562.284 343.652 588.181 374.301 606.762Z" fill="#D05448"/>
<rect x="144.195" y="235.785" width="62" height="104.511" transform="rotate(23.1628 144.195 235.785)" fill="white"/>
<rect width="62.039" height="104.445" transform="matrix(0.812702 -0.58268 0.58206 0.813146 272.105 550.711)" fill="white"/>
<path d="M100.008 288.779C130.592 216.927 178.726 167.377 245.84 136.48C252.607 133.517 263.879 133.37 269.48 136.965C273.377 139.543 273.16 151.734 271.756 158.9C232.563 333.301 281.361 480.769 406.36 605.456C412.158 611.233 419.143 622.034 417.185 627.931C415.107 634.132 403.569 639.436 395.64 640.892C269.635 665.571 141.825 589.236 100.178 467.365C79.0768 405.795 81.2582 345.622 100.008 288.779ZM162.035 258.346C160.093 257.936 157.966 257.103 156.023 256.694C138.323 273.264 125.842 316.778 138.638 335.115C146.274 309.344 154.095 283.997 162.035 258.346ZM378.996 601.057C356.874 575.212 334.872 549.063 312.751 523.219C326.557 555.98 348.56 582.129 378.996 601.057Z" fill="#691403"/>
</g>
<defs>
<clipPath id="clip0">
<rect width="729.214" height="688.475" fill="white"/>
</clipPath>
</defs>
</svg>
