<svg width="790" height="724" viewBox="0 0 790 724" fill="none" xmlns="http://www.w3.org/2000/svg">
<g clip-path="url(#clip0)">
<path d="M648.638 468.368C631.358 498.967 605.943 527.573 572.458 548.042C555.174 558.544 537.6 568.878 519.077 577.504C499.014 586.788 487.416 577.387 490.659 555.687C500.785 483.863 498.737 412.351 482.393 341.473C462.452 255.38 423.776 178.952 366.366 112.186C363.843 109.184 361.153 106.472 358.797 103.18C347.723 87.5117 351.391 73.7862 369.893 70.5571C392.636 66.6849 416.539 63.4829 439.551 65.1761C589.128 76.1817 699.853 205.415 688.384 355.294C686.059 386.798 671.015 430.28 648.638 468.368ZM506.627 552.155C509.451 552.626 512.107 553.387 514.931 553.857C517.561 539.919 519.901 525.813 522.699 511.585C520.623 511.159 518.547 510.734 516.471 510.308C513.383 524.369 510.005 538.262 506.627 552.155Z" fill="#D05448"/>
<path d="M654.112 459.936C636.833 490.535 611.418 519.141 577.932 539.61C560.648 550.111 543.074 560.445 524.551 569.072C504.488 578.356 492.891 568.955 496.133 547.255C506.26 475.431 504.212 403.919 487.868 333.041C467.927 246.948 429.251 170.519 371.84 103.754C369.317 100.752 366.627 98.0396 364.272 94.7475C353.197 79.0796 356.866 65.3541 375.368 62.125C398.11 58.2528 422.014 55.0508 445.026 56.744C594.603 67.7496 705.328 196.982 693.858 346.862C691.533 378.366 676.489 421.848 654.112 459.936ZM512.102 543.723C514.925 544.194 517.581 544.954 520.405 545.425C523.035 531.487 525.375 517.381 528.173 503.153C526.097 502.727 524.022 502.302 521.946 501.876C518.858 515.937 515.48 529.83 512.102 543.723Z" fill="#691403"/>
<path d="M242.692 641.789C186.227 609.575 154.3 571.049 127.885 525.657C78.807 442.449 85.6949 359.48 129.098 278.272C155.758 228.745 198.023 194.41 249.631 172.039C254.251 170.069 259.284 168.724 263.982 167.959C281.446 164.517 289.104 172.029 286.541 189.871C283.199 215.764 277.905 241.689 276.806 267.718C270.725 410.276 315.45 533.863 414.016 637.914C418.525 642.836 422.478 652.074 421.085 657.839C419.903 662.566 410.619 667.253 404.258 668.218C345.594 678.014 285.06 666.25 242.692 641.789ZM367.004 610.772C342.934 571.371 318.864 531.97 294.504 492.402C306.244 539.755 332.189 577.919 367.004 610.772ZM156.883 313.249C159.372 314.299 162.151 315.517 164.64 316.568C172.102 299.623 179.854 282.845 187.148 266.19C184.659 265.139 182.17 264.088 179.849 262.748C172.387 279.693 164.635 296.471 156.883 313.249Z" fill="#D05448"/>
<rect width="63.6665" height="107.089" transform="matrix(0.884284 0.466949 -0.466863 0.88433 180.86 238.941)" fill="white"/>
<path d="M248.787 638.134C192.322 605.92 160.396 567.393 133.981 522.001C84.9024 438.794 91.7903 355.825 135.193 274.617C161.853 225.09 204.118 190.755 255.727 168.384C260.346 166.414 265.379 165.069 270.077 164.304C287.541 160.862 295.199 168.374 292.636 186.216C289.295 212.109 284 238.034 282.902 264.063C276.82 406.621 321.545 530.208 420.111 634.259C424.621 639.181 428.573 648.419 427.18 654.183C425.998 658.911 416.714 663.598 410.353 664.563C351.689 674.359 291.155 662.595 248.787 638.134ZM373.099 607.117C349.029 567.716 324.96 528.315 300.599 488.747C312.34 536.099 338.284 574.264 373.099 607.117ZM162.978 309.594C165.467 310.644 168.246 311.862 170.735 312.913C178.197 295.967 185.949 279.19 193.244 262.534C190.755 261.484 188.266 260.433 185.944 259.093C178.482 276.038 170.73 292.816 162.978 309.594Z" fill="#691403"/>
<path d="M510.061 546.409C513.439 532.516 516.817 518.622 519.737 504.852C521.813 505.277 523.889 505.703 525.965 506.129C523.334 520.067 520.994 534.173 518.196 548.401C515.54 547.64 512.884 546.879 510.061 546.409Z" fill="white"/>
<path d="M373.206 608.942C338.681 576.257 312.904 537.803 300.706 490.572C324.609 530.263 348.679 569.664 373.206 608.942Z" fill="white"/>
</g>
<defs>
<clipPath id="clip0">
<rect width="789.99" height="723.151" fill="white"/>
</clipPath>
</defs>
</svg>
