<svg width="386" height="566" viewBox="0 0 386 566" fill="none" xmlns="http://www.w3.org/2000/svg">
    <path
        d="M12.0911 187.058C31.9261 119.709 81.1584 58.8041 157.007 20.0652C161.15 17.9538 165.204 16.1764 169.591 14.4884C188.989 7.5157 200.086 15.5005 198.812 36.2783C193.874 100.103 192.876 163.909 206.726 227.04C229.58 332.675 275.176 426.864 350.288 505.694C353.089 508.593 355.89 511.491 358.602 514.723C376.604 535.655 372.423 549.926 345.478 557.025C293.437 571.001 241.173 568.451 190.934 550.336C45.4663 497.756 -30.7569 350.975 12.0911 187.058Z"
        fill="#691403" />
    <path
        d="M21.7441 178.37C40.4359 110.694 88.6299 48.9638 163.812 8.9449C167.918 6.76358 171.942 4.9177 176.3 3.15558C195.577 -4.14493 206.808 3.6506 205.886 24.4469C202.029 88.3455 202.112 152.159 217.029 215.046C241.669 320.278 288.854 413.68 365.291 491.226C368.14 494.076 370.99 496.926 373.756 500.112C392.11 520.735 388.171 535.076 361.35 542.63C309.553 557.486 257.254 555.823 206.714 538.562C60.3764 488.456 -18.3219 342.988 21.7441 178.37Z"
        fill="#D05448" />
</svg>