<svg width="336" height="511" viewBox="0 0 336 511" fill="none" xmlns="http://www.w3.org/2000/svg">
    <g clip-path="url(#clip0)">
        <path
            d="M150.692 478.789C94.2267 446.575 62.3005 408.049 35.8855 362.657C-13.1929 279.449 -6.30503 196.48 37.0981 115.272C63.758 65.7451 106.023 31.4102 157.631 9.03914C162.251 7.06922 167.284 5.7242 171.982 4.95882C189.446 1.51693 197.104 9.02935 194.541 26.8711C191.199 52.7644 185.905 78.6894 184.806 104.718C178.725 247.276 223.45 370.863 322.016 474.914C326.525 479.836 330.478 489.074 329.085 494.839C327.903 499.566 318.619 504.253 312.258 505.218C253.594 515.014 193.06 503.25 150.692 478.789ZM275.004 447.772C250.934 408.371 226.864 368.97 202.504 329.402C214.244 376.755 240.189 414.919 275.004 447.772ZM64.8832 150.249C67.3721 151.299 70.1511 152.517 72.64 153.568C80.1018 136.623 87.8538 119.845 95.1483 103.19C92.6594 102.139 90.1705 101.088 87.849 99.7481C80.3872 116.693 72.6352 133.471 64.8832 150.249Z"
            fill="#D05448" />
        <rect width="63.6665" height="107.089" transform="matrix(0.884284 0.466949 -0.466863 0.88433 88.8604 75.9407)"
            fill="white" />
        <path
            d="M156.787 475.134C100.322 442.92 68.3957 404.393 41.9807 359.001C-7.0977 275.794 -0.209814 192.825 43.1933 111.617C69.8532 62.0898 112.118 27.755 163.727 5.38387C168.346 3.41395 173.379 2.06893 178.077 1.30355C195.541 -2.13834 203.199 5.37408 200.636 23.2159C197.295 49.1091 192 75.0341 190.902 101.063C184.82 243.621 229.545 367.208 328.111 471.259C332.621 476.181 336.573 485.419 335.18 491.183C333.998 495.911 324.714 500.598 318.353 501.563C259.689 511.359 199.155 499.595 156.787 475.134ZM281.099 444.117C257.029 404.716 232.959 365.315 208.599 325.747C220.34 373.099 246.284 411.264 281.099 444.117ZM70.9784 146.594C73.4673 147.644 76.2463 148.862 78.7352 149.913C86.197 132.967 93.949 116.19 101.244 99.5343C98.7546 98.4837 96.2657 97.4332 93.9442 96.0928C86.4824 113.038 78.7304 129.816 70.9784 146.594Z"
            fill="#691403" />
        <path
            d="M281.206 445.942C246.681 413.257 220.904 374.803 208.706 327.572C232.609 367.263 256.679 406.664 281.206 445.942Z"
            fill="white" />
    </g>
    <defs>
        <clipPath id="clip0">
            <rect width="336" height="511" fill="white" />
        </clipPath>
    </defs>
</svg>