<svg width="908" height="636" viewBox="0 0 908 636" fill="none" xmlns="http://www.w3.org/2000/svg">
<path d="M398.463 517.357C407.349 529.275 416.968 540.54 425.122 553.111C433.772 566.683 426.88 579.908 410.875 580.368C300.644 583.552 209.303 527.771 169.109 431.583C122.463 319.866 147.822 212.334 238.954 132.264C267.659 107.238 301.455 90.1543 339.412 82.6286C355.581 79.3975 365.208 88.1605 361.347 104.203C355.653 127.787 347.768 150.826 342.766 174.449C338.855 193.687 337.829 213.51 335.417 233.252C334.708 238.216 333.038 242.986 331.792 247.641C334.031 280.445 336.27 313.249 338.509 346.053C339.943 354.756 340.953 363.575 342.386 372.278C350.644 423.229 366.608 470.735 396.207 513.194C396.818 514.62 397.697 516.2 398.463 517.357Z" fill="#702A2A"/>
<path d="M393.722 523.995C402.987 535.62 412.964 546.569 421.517 558.87C430.6 572.156 424.137 585.596 408.154 586.571C298.08 593.304 204.99 540.495 161.721 445.655C111.505 335.5 133.393 227.21 221.905 144.248C249.79 118.311 283.019 100.148 320.716 91.4042C336.773 87.6541 346.678 96.1022 343.334 112.261C338.401 136.015 331.261 159.295 327.022 183.067C323.732 202.421 323.343 222.266 321.568 242.075C321.019 247.059 319.504 251.879 318.408 256.572C321.701 289.286 324.994 322 328.287 354.714C330 363.367 331.293 372.148 333.006 380.801C342.898 431.458 360.382 478.424 391.333 519.906C391.989 521.312 392.919 522.863 393.722 523.995Z" fill="#D05448"/>
<g filter="url(#filter0_d)">
<path d="M130.233 217.544C166.487 152.78 217.038 110.888 283.61 88.5662C290.307 86.4596 300.971 87.475 305.895 91.4461C309.312 94.281 307.859 105.778 305.798 112.406C250.908 273.192 281.908 417.54 387.234 548.166C392.12 554.219 397.613 565.14 395.159 570.512C392.561 576.16 381.117 579.99 373.477 580.553C251.902 590.967 138.969 505.744 112.103 386.316C98.4734 325.974 106.697 269.337 130.233 217.544ZM191.952 195.139C190.159 194.553 188.234 193.548 186.441 192.962C168.021 206.807 151.773 246.648 161.984 265.286C171.838 241.716 181.823 218.565 191.952 195.139ZM361.831 541.207C343.579 514.519 325.469 487.556 307.217 460.868C316.905 493.24 335.015 520.203 361.831 541.207Z" fill="#D05448"/>
<rect width="58.9217" height="99.3318" transform="matrix(0.865982 0.500075 -0.499925 0.866068 186.686 165.066)" fill="white"/>
<rect width="58.9586" height="99.2698" transform="matrix(0.876249 -0.481858 0.481043 0.876697 271.746 476.745)" fill="white"/>
<path d="M138.998 210.078C175.984 145.73 227.007 104.414 293.828 82.8503C300.548 80.8199 311.2 81.9563 316.078 85.9832C319.463 88.8567 317.879 100.337 315.744 106.941C259.033 267.094 288.392 411.786 392.228 543.601C397.046 549.709 402.415 560.693 399.9 566.037C397.238 571.654 385.751 575.354 378.105 575.83C256.421 584.863 144.463 498.361 118.954 378.635C106.01 318.141 114.876 261.601 138.998 210.078ZM200.967 188.376C199.18 187.769 197.267 186.743 195.481 186.137C176.905 199.771 160.206 239.425 170.205 258.178C180.326 234.721 190.573 211.685 200.967 188.376ZM366.907 536.354C348.958 509.46 331.156 482.293 313.207 455.399C322.528 487.879 340.33 515.047 366.907 536.354Z" fill="#691403"/>
</g>
<g clip-path="url(#clip0)">
<path d="M686.463 491.357C695.349 503.275 704.968 514.54 713.122 527.111C721.772 540.683 714.88 553.908 698.875 554.368C588.644 557.552 497.303 501.771 457.109 405.583C410.463 293.866 435.822 186.334 526.954 106.264C555.659 81.2375 589.455 64.1543 627.412 56.6286C643.581 53.3975 653.208 62.1605 649.347 78.2035C643.653 101.787 635.768 124.826 630.766 148.449C626.855 167.687 625.829 187.51 623.417 207.252C622.708 212.216 621.038 216.986 619.792 221.641C622.031 254.445 624.27 287.249 626.509 320.053C627.943 328.756 628.953 337.575 630.386 346.278C638.644 397.229 654.608 444.735 684.207 487.194C684.818 488.62 685.697 490.2 686.463 491.357Z" fill="#702A2A"/>
<path d="M681.722 497.995C690.987 509.62 700.964 520.569 709.517 532.87C718.6 546.156 712.137 559.596 696.154 560.571C586.08 567.304 492.99 514.495 449.721 419.655C399.505 309.5 421.393 201.21 509.905 118.248C537.79 92.3108 571.019 74.1484 608.716 65.4042C624.773 61.6541 634.678 70.1022 631.334 86.2608C626.401 110.015 619.261 133.295 615.022 157.067C611.732 176.421 611.343 196.266 609.568 216.075C609.019 221.059 607.504 225.879 606.408 230.572C609.701 263.286 612.994 296 616.287 328.714C618 337.367 619.293 346.148 621.006 354.801C630.898 405.458 648.382 452.424 679.333 493.906C679.989 495.312 680.919 496.863 681.722 497.995Z" fill="#D05448"/>
<g filter="url(#filter1_d)">
<path d="M418.233 191.544C454.487 126.78 505.038 84.8881 571.61 62.5662C578.307 60.4596 588.971 61.475 593.895 65.4461C597.312 68.281 595.859 79.7781 593.798 86.4062C538.908 247.192 569.908 391.54 675.234 522.166C680.12 528.219 685.613 539.14 683.159 544.512C680.561 550.16 669.117 553.99 661.477 554.553C539.902 564.967 426.969 479.744 400.103 360.316C386.473 299.974 394.697 243.337 418.233 191.544ZM479.952 169.139C478.159 168.553 476.234 167.548 474.441 166.962C456.021 180.807 439.773 220.648 449.984 239.286C459.838 215.716 469.823 192.565 479.952 169.139ZM649.831 515.207C631.579 488.519 613.469 461.556 595.217 434.868C604.905 467.24 623.015 494.203 649.831 515.207Z" fill="#D05448"/>
<rect width="58.9217" height="99.3318" transform="matrix(0.865982 0.500075 -0.499925 0.866068 474.686 139.066)" fill="white"/>
<rect width="58.9586" height="99.2698" transform="matrix(0.876249 -0.481858 0.481043 0.876697 559.746 450.745)" fill="white"/>
<path d="M426.999 184.078C463.984 119.73 515.007 78.4145 581.828 56.8503C588.548 54.8199 599.2 55.9563 604.078 59.9832C607.463 62.8567 605.879 74.3367 603.744 80.941C547.033 241.094 576.392 385.786 680.228 517.601C685.046 523.709 690.415 534.693 687.9 540.037C685.238 545.654 673.751 549.354 666.105 549.83C544.421 558.863 432.463 472.361 406.954 352.635C394.01 292.141 402.876 235.601 426.999 184.078ZM488.967 162.376C487.18 161.769 485.267 160.743 483.481 160.137C464.905 173.771 448.206 213.425 458.205 232.178C468.326 208.721 478.573 185.685 488.967 162.376ZM654.907 510.354C636.958 483.46 619.156 456.293 601.207 429.399C610.528 461.879 628.33 489.047 654.907 510.354Z" fill="#691403"/>
</g>
</g>
<defs>
<filter id="filter0_d" x="101.514" y="73.8646" width="303.027" height="507.549" filterUnits="userSpaceOnUse" color-interpolation-filters="sRGB">
<feFlood flood-opacity="0" result="BackgroundImageFix"/>
<feColorMatrix in="SourceAlpha" type="matrix" values="0 0 0 0 0 0 0 0 0 0 0 0 0 0 0 0 0 0 127 0"/>
<feOffset dy="-4"/>
<feGaussianBlur stdDeviation="2"/>
<feColorMatrix type="matrix" values="0 0 0 0 0 0 0 0 0 0 0 0 0 0 0 0 0 0 0.25 0"/>
<feBlend mode="normal" in2="BackgroundImageFix" result="effect1_dropShadow"/>
<feBlend mode="normal" in="SourceGraphic" in2="effect1_dropShadow" result="shape"/>
</filter>
<filter id="filter1_d" x="389.514" y="47.8646" width="303.027" height="507.549" filterUnits="userSpaceOnUse" color-interpolation-filters="sRGB">
<feFlood flood-opacity="0" result="BackgroundImageFix"/>
<feColorMatrix in="SourceAlpha" type="matrix" values="0 0 0 0 0 0 0 0 0 0 0 0 0 0 0 0 0 0 127 0"/>
<feOffset dy="-4"/>
<feGaussianBlur stdDeviation="2"/>
<feColorMatrix type="matrix" values="0 0 0 0 0 0 0 0 0 0 0 0 0 0 0 0 0 0 0.25 0"/>
<feBlend mode="normal" in2="BackgroundImageFix" result="effect1_dropShadow"/>
<feBlend mode="normal" in="SourceGraphic" in2="effect1_dropShadow" result="shape"/>
</filter>
<clipPath id="clip0">
<rect width="620" height="609.558" fill="white" transform="translate(288)"/>
</clipPath>
</defs>
</svg>
