<svg width="201" height="174" viewBox="0 0 201 174" fill="none" xmlns="http://www.w3.org/2000/svg">
<path d="M200.1 23.9H0.100098V173.9H200.1V23.9Z" fill="#691403"/>
<path d="M100.1 117.8C110.538 117.8 119 109.338 119 98.9C119 88.4618 110.538 80 100.1 80C89.662 80 81.2002 88.4618 81.2002 98.9C81.2002 109.338 89.662 117.8 100.1 117.8Z" fill="#D05448"/>
<path d="M100.1 119.8C110.538 119.8 119 111.338 119 100.9C119 90.4618 110.538 82 100.1 82C89.662 82 81.2002 90.4618 81.2002 100.9C81.2002 111.338 89.662 119.8 100.1 119.8Z" fill="#4C0801"/>
<path d="M15.5001 0.699982H181.5L200.1 22.4V22.8H0.100098" fill="#D05448"/>
</svg>
