<svg width="201" height="151" viewBox="0 0 201 151" fill="none" xmlns="http://www.w3.org/2000/svg">
<path d="M200.9 0.699982H0.899902V150.7H200.9V0.699982Z" fill="#691403"/>
<path d="M100.9 94.5999C111.338 94.5999 119.8 86.1382 119.8 75.7C119.8 65.2618 111.338 56.8 100.9 56.8C90.4618 56.8 82 65.2618 82 75.7C82 86.1382 90.4618 94.5999 100.9 94.5999Z" fill="#D05448"/>
<path d="M100.9 96.5999C111.338 96.5999 119.8 88.1382 119.8 77.7C119.8 67.2618 111.338 58.8 100.9 58.8C90.4618 58.8 82 67.2618 82 77.7C82 88.1382 90.4618 96.5999 100.9 96.5999Z" fill="#4C0801"/>
</svg>
