<svg width="201" height="156" viewBox="0 0 201 156" fill="none" xmlns="http://www.w3.org/2000/svg">
<path d="M200.6 5.70004H0.600098V155.7H200.6V5.70004Z" fill="#691403"/>
<path d="M100.6 99.6C111.038 99.6 119.5 91.1382 119.5 80.7C119.5 70.2619 111.038 61.8 100.6 61.8C90.162 61.8 81.7002 70.2619 81.7002 80.7C81.7002 91.1382 90.162 99.6 100.6 99.6Z" fill="#D05448"/>
<path d="M100.6 101.6C111.038 101.6 119.5 93.1382 119.5 82.7C119.5 72.2619 111.038 63.8 100.6 63.8C90.162 63.8 81.7002 72.2619 81.7002 82.7C81.7002 93.1382 90.162 101.6 100.6 101.6Z" fill="#4C0801"/>
<path d="M5.70007 3.05176e-05H195.4L200.6 4.60001H0.600098" fill="#D05448"/>
</svg>
